<svg width="24" height="24" viewBox="0 0 24 24" fill="none" xmlns="http://www.w3.org/2000/svg">
<g clip-path="url(#clip0)">
<path d="M5 15H0.99997C0.72397 15 0.499954 15.224 0.499954 15.5V23.5C0.499954 23.776 0.72397 24 0.99997 24H4.99995C5.27595 24 5.49997 23.776 5.49997 23.5V15.5C5.49997 15.224 5.276 15 5 15Z" fill="#05AC06"/>
<path d="M11 10H7.00005C6.72405 10 6.50003 10.224 6.50003 10.5V23.5C6.50003 23.776 6.72405 24 7.00005 24H11C11.276 24 11.5 23.776 11.5 23.5V10.5C11.5 10.224 11.276 10 11 10Z" fill="#05AC06"/>
<path d="M17 5H13C12.724 5 12.5 5.22402 12.5 5.50002V23.5C12.5 23.776 12.724 24 13 24H17C17.276 24 17.5 23.776 17.5 23.5V5.50002C17.5 5.22397 17.276 5 17 5Z" fill="#05AC06"/>
<path d="M23 0H19C18.724 0 18.5 0.224016 18.5 0.500016V23.5C18.5 23.776 18.724 24 19 24H23C23.276 24 23.5 23.776 23.5 23.5V0.500016C23.5 0.224016 23.276 0 23 0Z" fill="#05AC06"/>
</g>
<defs>
<clipPath id="clip0">
<rect width="24" height="24" fill="white"/>
</clipPath>
</defs>
</svg>
