<svg width="20" height="24" viewBox="0 0 20 24" fill="none" xmlns="http://www.w3.org/2000/svg">
<path d="M4.15453 17.2546C4.15453 18.9653 5.54629 20.3571 7.25702 20.3571C7.60613 20.3571 7.88912 20.6402 7.88912 20.9892C7.88912 21.3383 7.60613 21.6213 7.25702 21.6213C4.84921 21.6213 2.89032 19.6624 2.89032 17.2546C2.89032 16.9055 3.17331 16.6225 3.52242 16.6225C3.87154 16.6225 4.15453 16.9055 4.15453 17.2546ZM19.4006 23.0471L15.2216 15.9457C15.108 15.7528 14.9008 15.6342 14.6768 15.6342H7.88906V9.22662C7.88906 8.87757 7.60606 8.59451 7.25695 8.59451C6.90784 8.59451 6.62485 8.87757 6.62485 9.22662V16.2663C6.62485 16.6154 6.90784 16.8985 7.25695 16.8985H14.3153L18.3111 23.6884C18.4289 23.8886 18.6398 24 18.8565 24C18.9654 24 19.0758 23.9718 19.1765 23.9125C19.4773 23.7355 19.5777 23.348 19.4006 23.0471ZM3.64499 3.63276C3.64499 1.62962 5.27461 0 7.27762 0C9.28076 0 10.9105 1.62962 10.9105 3.63276C10.9105 5.63589 9.28082 7.26552 7.27762 7.26552C5.27461 7.26545 3.64499 5.63583 3.64499 3.63276ZM4.9092 3.63276C4.9092 4.93875 5.97163 6.00131 7.27756 6.00131C8.58367 6.00131 9.64624 4.93875 9.64624 3.63276C9.64624 2.32677 8.58367 1.26421 7.27762 1.26421C5.9717 1.26421 4.9092 2.32677 4.9092 3.63276ZM13.2111 18.7846C12.8841 18.6636 12.52 18.8305 12.3988 19.1579C11.6063 21.2978 9.53986 22.7357 7.25695 22.7357C4.23474 22.7357 1.77599 20.2769 1.77599 17.2546C1.77599 15.2521 2.86769 13.4093 4.62519 12.4453C4.93126 12.2775 5.04333 11.8933 4.87538 11.5871C4.70749 11.2811 4.32324 11.1691 4.01717 11.337C1.85494 12.523 0.511719 14.7905 0.511719 17.2546C0.511719 20.9739 3.5376 23.9999 7.25689 23.9999C10.0661 23.9999 12.6089 22.2305 13.5843 19.597C13.7056 19.2696 13.5385 18.9059 13.2111 18.7846Z" fill="white"/>
</svg>
