<svg width="40" height="41" viewBox="0 0 40 41" fill="none" xmlns="http://www.w3.org/2000/svg">
<path d="M28.7848 1.84744C26.198 0.633416 23.376 0.00272852 20.5186 8.83236e-06L20.5 19.5L28.7848 1.84744Z" fill="white" fill-opacity="0.2"/>
<path d="M40 19.5C40 16.6425 39.372 13.82 38.1604 11.232L20.5 19.5H40Z" fill="white" fill-opacity="0.2"/>
<path d="M36.994 9.09821C35.4698 6.68122 33.433 4.62876 31.0277 3.08605L20.5 19.5L36.994 9.09821Z" fill="white" fill-opacity="0.2"/>
<path d="M38.115 28.8615C39.3086 26.2879 39.9219 23.4835 39.9116 20.6467L20.5526 20.7167L38.115 28.8615Z" fill="white" fill-opacity="0.2"/>
<path d="M20.641 40.0756C23.4778 40.0627 26.2771 39.4264 28.8408 38.2119L20.5526 20.7167L20.641 40.0756Z" fill="white" fill-opacity="0.2"/>
<path d="M30.9539 37.0442C33.3465 35.52 35.3749 33.4886 36.8956 31.0938L20.5526 20.7167L30.9539 37.0442Z" fill="white" fill-opacity="0.2"/>
<path d="M11.2152 1.84744C13.802 0.633416 16.624 0.00272852 19.4814 8.83236e-06L19.5 19.5L11.2152 1.84744Z" fill="white" fill-opacity="0.2"/>
<path d="M0 19.5C0 16.6425 0.628002 13.82 1.83957 11.232L19.5 19.5H0Z" fill="white" fill-opacity="0.2"/>
<path d="M3.00598 9.09821C4.53023 6.68122 6.56705 4.62876 8.9723 3.08605L19.5 19.5L3.00598 9.09821Z" fill="white" fill-opacity="0.2"/>
<path d="M1.88496 28.8615C0.691449 26.2879 0.0781199 23.4835 0.0883778 20.6467L19.4474 20.7167L1.88496 28.8615Z" fill="white" fill-opacity="0.2"/>
<path d="M19.359 40.0756C16.5222 40.0627 13.7229 39.4264 11.1592 38.2119L19.4474 20.7167L19.359 40.0756Z" fill="white" fill-opacity="0.2"/>
<path d="M9.04606 37.0442C6.65347 35.52 4.62508 33.4886 3.10445 31.0938L19.4474 20.7167L9.04606 37.0442Z" fill="white" fill-opacity="0.2"/>
</svg>
